<?xml version="1.0" encoding="UTF-8" standalone="no"?>
<!DOCTYPE svg PUBLIC "-//W3C//DTD SVG 1.1//EN" "http://www.w3.org/Graphics/SVG/1.1/DTD/svg11.dtd">
<!-- Generated by Microsoft Visio, SVG Export asi_growth.svg Page-1 -->
<svg xmlns="http://www.w3.org/2000/svg" xmlns:xlink="http://www.w3.org/1999/xlink" xmlns:ev="http://www.w3.org/2001/xml-events"
		xmlns:v="http://schemas.microsoft.com/visio/2003/SVGExtensions/" width="5.27944in" height="4.16069in"
		viewBox="0 0 380.12 299.57" xml:space="preserve" color-interpolation-filters="sRGB" class="st12">
	<v:documentProperties v:langID="1033" v:viewMarkup="false">
		<v:userDefs>
			<v:ud v:nameU="msvNoAutoConnect" v:val="VT0(1):26"/>
		</v:userDefs>
	</v:documentProperties>

	<style type="text/css">
	<![CDATA[
		.st1 {fill:#ffffff;stroke:#000000;stroke-linecap:round;stroke-linejoin:round;stroke-width:0.24}
		.st2 {fill:#000000;font-family:Arial;font-size:1.00001em}
		.st3 {font-size:0.749994em}
		.st4 {marker-end:url(#mrkr4-37);stroke:#000000;stroke-linecap:round;stroke-linejoin:round;stroke-width:0.75}
		.st5 {fill:#000000;fill-opacity:1;stroke:#000000;stroke-opacity:1;stroke-width:0.22935779816514}
		.st6 {fill:#ffffff;stroke:none;stroke-linecap:butt;stroke-width:7.2}
		.st7 {fill:#000000;font-family:Arial;font-size:0.75em}
		.st8 {fill:none;stroke:none;stroke-linecap:round;stroke-linejoin:round;stroke-width:0.75}
		.st9 {marker-end:url(#mrkr4-120);marker-start:url(#mrkr4-118);stroke:#000000;stroke-linecap:round;stroke-linejoin:round;stroke-width:0.75}
		.st10 {fill:#ffffff;stroke:none;stroke-linecap:butt}
		.st11 {fill:#000000;font-family:Calibri;font-size:0.666664em}
		.st12 {fill:none;fill-rule:evenodd;font-size:12px;overflow:visible;stroke-linecap:square;stroke-miterlimit:3}
	]]>
	</style>

	<defs id="Markers">
		<g id="lend4">
			<path d="M 2 1 L 0 0 L 2 -1 L 2 1 " style="stroke:none"/>
		</g>
		<marker id="mrkr4-37" class="st5" v:arrowType="4" v:arrowSize="2" v:setback="8.72" refX="-8.72" orient="auto"
				markerUnits="strokeWidth" overflow="visible">
			<use xlink:href="#lend4" transform="scale(-4.36,-4.36) "/>
		</marker>
		<marker id="mrkr4-118" class="st5" v:arrowType="4" v:arrowSize="2" v:setback="8.24" refX="8.24" orient="auto"
				markerUnits="strokeWidth" overflow="visible">
			<use xlink:href="#lend4" transform="scale(4.36) "/>
		</marker>
		<marker id="mrkr4-120" class="st5" v:arrowType="4" v:arrowSize="2" v:setback="8.24" refX="-8.24" orient="auto"
				markerUnits="strokeWidth" overflow="visible">
			<use xlink:href="#lend4" transform="scale(-4.36,-4.36) "/>
		</marker>
	</defs>
	<g v:mID="0" v:index="1" v:groupContext="foregroundPage">
		<title>Page-1</title>
		<v:pageProperties v:drawingScale="1" v:pageScale="1" v:drawingUnits="19" v:shadowOffsetX="9" v:shadowOffsetY="-9"/>
		<v:layer v:name="Connector" v:index="0"/>
		<g id="shape1000-1" v:mID="1000" v:groupContext="shape" transform="translate(18.12,-198.395)">
			<title>Rectangle.1000</title>
			<desc>ASI 0</desc>
			<v:userDefs>
				<v:ud v:nameU="visVersion" v:val="VT0(15):26"/>
			</v:userDefs>
			<v:textBlock v:margins="rect(4,4,4,4)"/>
			<v:textRect cx="33.75" cy="277.07" width="67.51" height="45"/>
			<rect x="0" y="254.57" width="67.5" height="45" class="st1"/>
			<text x="19.08" y="280.67" class="st2" v:langID="1033"><v:paragraph v:horizAlign="1"/><v:tabList/>ASI 0</text>		</g>
		<g id="shape1001-4" v:mID="1001" v:groupContext="shape" transform="translate(99.12,-198.395)">
			<title>Rectangle.1001</title>
			<desc>ASI 6</desc>
			<v:userDefs>
				<v:ud v:nameU="visVersion" v:val="VT0(15):26"/>
			</v:userDefs>
			<v:textBlock v:margins="rect(4,4,4,4)"/>
			<v:textRect cx="33.75" cy="277.07" width="67.51" height="45"/>
			<rect x="0" y="254.57" width="67.5" height="45" class="st1"/>
			<text x="19.08" y="280.67" class="st2" v:langID="1033"><v:paragraph v:horizAlign="1"/><v:tabList/>ASI 6</text>		</g>
		<g id="shape1002-7" v:mID="1002" v:groupContext="shape" transform="translate(180.12,-198.395)">
			<title>Rectangle.1002</title>
			<desc>ASI 12</desc>
			<v:userDefs>
				<v:ud v:nameU="visVersion" v:val="VT0(15):26"/>
			</v:userDefs>
			<v:textBlock v:margins="rect(4,4,4,4)"/>
			<v:textRect cx="33.75" cy="277.07" width="67.51" height="45"/>
			<rect x="0" y="254.57" width="67.5" height="45" class="st1"/>
			<text x="15.74" y="280.67" class="st2" v:langID="1033"><v:paragraph v:horizAlign="1"/><v:tabList/>ASI 12</text>		</g>
		<g id="shape1003-10" v:mID="1003" v:groupContext="shape" transform="translate(261.12,-198.395)">
			<title>Rectangle.1003</title>
			<desc>ASI 18</desc>
			<v:userDefs>
				<v:ud v:nameU="visVersion" v:val="VT0(15):26"/>
			</v:userDefs>
			<v:textBlock v:margins="rect(4,4,4,4)"/>
			<v:textRect cx="33.75" cy="277.07" width="67.51" height="45"/>
			<rect x="0" y="254.57" width="67.5" height="45" class="st1"/>
			<text x="15.74" y="280.67" class="st2" v:langID="1033"><v:paragraph v:horizAlign="1"/><v:tabList/>ASI 18</text>		</g>
		<g id="shape1004-13" v:mID="1004" v:groupContext="shape" transform="translate(18.12,-58.8947)">
			<title>Circle.1004</title>
			<desc>Intercept M = 29.47*</desc>
			<v:userDefs>
				<v:ud v:nameU="visVersion" v:val="VT0(15):26"/>
			</v:userDefs>
			<v:textBlock v:margins="rect(4,4,4,4)"/>
			<v:textRect cx="33.75" cy="265.82" width="59.07" height="50.625"/>
			<path d="M0 265.82 A33.75 33.75 0 0 1 67.5 265.82 A33.75 33.75 0 1 1 0 265.82 Z" class="st1"/>
			<text x="10.4" y="262.22" class="st2" v:langID="1033"><v:paragraph v:horizAlign="1"/><v:tabList/>Intercept<v:lf/><tspan
						x="11.86" dy="1.6em" class="st3">M </tspan><tspan class="st3">= </tspan><tspan class="st3">29</tspan><tspan
						class="st3">.</tspan><tspan class="st3">47</tspan><tspan class="st3">*</tspan></text>		</g>
		<g id="shape1005-22" v:mID="1005" v:groupContext="shape" transform="translate(261.12,-58.8947)">
			<title>Circle.1005</title>
			<desc>Slope M = -1.84*</desc>
			<v:userDefs>
				<v:ud v:nameU="visVersion" v:val="VT0(15):26"/>
			</v:userDefs>
			<v:textBlock v:margins="rect(4,4,4,4)"/>
			<v:textRect cx="33.75" cy="265.82" width="59.07" height="50.625"/>
			<path d="M0 265.82 A33.75 33.75 0 0 1 67.5 265.82 A33.75 33.75 0 1 1 0 265.82 Z" class="st1"/>
			<text x="18.4" y="262.22" class="st2" v:langID="1033"><v:paragraph v:horizAlign="1"/><v:tabList/>Slope<v:lf/><tspan
						x="12.86" dy="1.6em" class="st3">M </tspan><tspan class="st3">= </tspan><tspan class="st3">-</tspan><tspan
						class="st3">1</tspan><tspan class="st3">.</tspan><tspan class="st3">84</tspan><tspan class="st3">*</tspan></text>		</g>
		<g id="shape1006-32" v:mID="1006" v:groupContext="shape" v:layerMember="0" transform="translate(42.87,-126.395)">
			<title>Dynamic connector.1006</title>
			<desc>1</desc>
			<v:textBlock v:margins="rect(4,4,4,4)"/>
			<v:textRect cx="9" cy="277.07" width="45" height="18.8036"/>
			<path d="M9 299.57 L9 234.11" class="st4"/>
			<rect v:rectContext="textBkgnd" x="6.49731" y="271.67" width="5.00537" height="10.7998" class="st6"/>
			<text x="6.5" y="279.77" class="st7" v:langID="1033"><v:paragraph v:horizAlign="1"/><v:tabList/>1</text>		</g>
		<g id="shape1007-40" v:mID="1007" v:groupContext="shape" v:layerMember="0" transform="translate(51.87,-126.395)">
			<title>Dynamic connector.1007</title>
			<desc>1</desc>
			<v:textBlock v:margins="rect(4,4,4,4)"/>
			<v:textRect cx="24.75" cy="277.07" width="45" height="18.8036"/>
			<path d="M0 299.57 L76.11 231.91" class="st4"/>
			<rect v:rectContext="textBkgnd" x="22.2473" y="271.67" width="5.00537" height="10.7998" class="st6"/>
			<text x="22.25" y="279.77" class="st7" v:langID="1033"><v:paragraph v:horizAlign="1"/><v:tabList/>1</text>		</g>
		<g id="shape1008-47" v:mID="1008" v:groupContext="shape" v:layerMember="0" transform="translate(51.87,-126.395)">
			<title>Dynamic connector.1008</title>
			<desc>1</desc>
			<v:textBlock v:margins="rect(4,4,4,4)"/>
			<v:textRect cx="51.75" cy="277.07" width="45" height="18.8036"/>
			<path d="M0 299.57 L118.76 246.79 A3 3 0 0 1 124.24 244.35 L156.02 230.23" class="st4"/>
			<rect v:rectContext="textBkgnd" x="49.2473" y="271.67" width="5.00537" height="10.7998" class="st6"/>
			<text x="49.25" y="279.77" class="st7" v:langID="1033"><v:paragraph v:horizAlign="1"/><v:tabList/>1</text>		</g>
		<g id="shape1009-54" v:mID="1009" v:groupContext="shape" v:layerMember="0" transform="translate(51.87,-126.395)">
			<title>Dynamic connector.1009</title>
			<desc>1</desc>
			<v:textBlock v:margins="rect(4,4,4,4)"/>
			<v:textRect cx="82.125" cy="274.82" width="45" height="18.8036"/>
			<path d="M0 299.57 L142.92 257.22 A3 3 0 0 1 148.68 255.52 L179.37 246.42 A3 3 0 1 1 185.13 244.72 L236.73 229.43"
					class="st4"/>
			<rect v:rectContext="textBkgnd" x="79.6223" y="269.42" width="5.00537" height="10.7998" class="st6"/>
			<text x="79.62" y="277.52" class="st7" v:langID="1033"><v:paragraph v:horizAlign="1"/><v:tabList/>1</text>		</g>
		<g id="shape1010-61" v:mID="1010" v:groupContext="shape" v:layerMember="0" transform="translate(294.87,-126.395)">
			<title>Dynamic connector.1010</title>
			<desc>0</desc>
			<v:textBlock v:margins="rect(4,4,4,4)"/>
			<v:textRect cx="-79.875" cy="275.945" width="45" height="18.8036"/>
			<path d="M0 299.57 L-142.92 257.22 A3 3 -180 0 0 -148.68 255.52 L-179.37 246.42 A3 3 -180 0 0 -185.13 244.72 L-236.73
						 229.43" class="st4"/>
			<rect v:rectContext="textBkgnd" x="-82.3777" y="270.545" width="5.00537" height="10.7998" class="st6"/>
			<text x="-82.38" y="278.64" class="st7" v:langID="1033"><v:paragraph v:horizAlign="1"/><v:tabList/>0</text>		</g>
		<g id="shape1011-68" v:mID="1011" v:groupContext="shape" v:layerMember="0" transform="translate(294.87,-126.395)">
			<title>Dynamic connector.1011</title>
			<desc>6</desc>
			<v:textBlock v:margins="rect(4,4,4,4)"/>
			<v:textRect cx="-52.875" cy="275.945" width="45" height="18.8036"/>
			<path d="M0 299.57 L-156.02 230.23" class="st4"/>
			<rect v:rectContext="textBkgnd" x="-55.3777" y="270.545" width="5.00537" height="10.7998" class="st6"/>
			<text x="-55.38" y="278.64" class="st7" v:langID="1033"><v:paragraph v:horizAlign="1"/><v:tabList/>6</text>		</g>
		<g id="shape1012-75" v:mID="1012" v:groupContext="shape" v:layerMember="0" transform="translate(294.87,-126.395)">
			<title>Dynamic connector.1012</title>
			<desc>7.03*</desc>
			<v:textBlock v:margins="rect(4,4,4,4)"/>
			<v:textRect cx="-25.875" cy="276.507" width="45" height="18.8036"/>
			<path d="M0 299.57 L-76.11 231.91" class="st4"/>
			<rect v:rectContext="textBkgnd" x="-36.3845" y="271.107" width="21.019" height="10.7998" class="st6"/>
			<text x="-36.38" y="279.21" class="st7" v:langID="1033"><v:paragraph v:horizAlign="1"/><v:tabList/>7.03*</text>		</g>
		<g id="shape1013-82" v:mID="1013" v:groupContext="shape" v:layerMember="0" transform="translate(303.87,-126.395)">
			<title>Dynamic connector.1013</title>
			<desc>7.27*</desc>
			<v:textBlock v:margins="rect(4,4,4,4)"/>
			<v:textRect cx="-9" cy="277.07" width="45" height="18.8036"/>
			<path d="M-9 299.57 L-9 234.11" class="st4"/>
			<rect v:rectContext="textBkgnd" x="-19.5095" y="271.67" width="21.019" height="10.7998" class="st6"/>
			<text x="-19.51" y="279.77" class="st7" v:langID="1033"><v:paragraph v:horizAlign="1"/><v:tabList/>7.27*</text>		</g>
		<g id="shape1015-89" v:mID="1015" v:groupContext="shape" v:layerMember="0" transform="translate(141.87,-270.395)">
			<title>Dynamic connector.1015</title>
			<path d="M-9 299.57 L-9 320.03" class="st4"/>
		</g>
		<g id="shape1016-94" v:mID="1016" v:groupContext="shape" v:layerMember="0" transform="translate(42.87,-270.395)">
			<title>Dynamic connector.1016</title>
			<path d="M9 299.57 L9 320.03" class="st4"/>
		</g>
		<g id="shape1017-99" v:mID="1017" v:groupContext="shape" v:layerMember="0" transform="translate(222.87,-270.395)">
			<title>Dynamic connector.1017</title>
			<path d="M-9 299.57 L-9 320.03" class="st4"/>
		</g>
		<g id="shape1018-104" v:mID="1018" v:groupContext="shape" v:layerMember="0" transform="translate(303.87,-270.395)">
			<title>Dynamic connector.1018</title>
			<path d="M-9 299.57 L-9 320.03" class="st4"/>
		</g>
		<g id="shape1019-109" v:mID="1019" v:groupContext="shape" transform="translate(49.62,-252.395)">
			<title>Sheet.1019</title>
			<desc>47.94</desc>
			<v:textBlock v:margins="rect(4,4,4,4)"/>
			<v:textRect cx="18" cy="285.17" width="36.01" height="28.8"/>
			<rect x="0" y="270.77" width="36" height="28.8" class="st8"/>
			<text x="6.74" y="287.87" class="st7" v:langID="1033"><v:paragraph v:horizAlign="1"/><v:tabList/>47.94</text>		</g>
		<g id="shape1024-112" v:mID="1024" v:groupContext="shape" v:layerMember="0" transform="translate(51.87,-67.8947)">
			<title>Dynamic connector.1024</title>
			<desc>-9.06*</desc>
			<v:textBlock v:margins="rect(4,4,4,4)"/>
			<v:textRect cx="121.659" cy="340.063" width="45" height="18.8036"/>
			<path d="M3.1 313.92 L3.28 314.23 C16.96 326.6 71.2 340.07 123.75 340.07 C176.19 340.07 226.95 326.66 239.86 314.31 L240.03
						 313.99" class="st9"/>
			<rect v:rectContext="textBkgnd" x="109.651" y="334.663" width="24.0161" height="10.7998" class="st10"/>
			<text x="109.65" y="342.76" class="st7" v:langID="1033"><v:paragraph v:horizAlign="1"/><v:tabList/>-9.06*</text>		</g>
		<g id="shape1025-123" v:mID="1025" v:groupContext="shape" transform="translate(130.62,-252.395)">
			<title>Sheet.1025</title>
			<desc>47.94</desc>
			<v:textBlock v:margins="rect(4,4,4,4)"/>
			<v:textRect cx="18" cy="285.17" width="36.01" height="28.8"/>
			<rect x="0" y="270.77" width="36" height="28.8" class="st8"/>
			<text x="6.74" y="287.87" class="st7" v:langID="1033"><v:paragraph v:horizAlign="1"/><v:tabList/>47.94</text>		</g>
		<g id="shape1026-126" v:mID="1026" v:groupContext="shape" transform="translate(211.62,-252.395)">
			<title>Sheet.1026</title>
			<desc>47.94</desc>
			<v:textBlock v:margins="rect(4,4,4,4)"/>
			<v:textRect cx="18" cy="285.17" width="36.01" height="28.8"/>
			<rect x="0" y="270.77" width="36" height="28.8" class="st8"/>
			<text x="6.74" y="287.87" class="st7" v:langID="1033"><v:paragraph v:horizAlign="1"/><v:tabList/>47.94</text>		</g>
		<g id="shape1030-129" v:mID="1030" v:groupContext="shape" transform="translate(292.62,-252.395)">
			<title>Sheet.1030</title>
			<desc>47.94</desc>
			<v:textBlock v:margins="rect(4,4,4,4)"/>
			<v:textRect cx="18" cy="285.17" width="36.01" height="28.8"/>
			<rect x="0" y="270.77" width="36" height="28.8" class="st8"/>
			<text x="6.74" y="287.87" class="st7" v:langID="1033"><v:paragraph v:horizAlign="1"/><v:tabList/>47.94</text>		</g>
		<g id="shape1032-132" v:mID="1032" v:groupContext="shape" v:layerMember="0" transform="translate(99.12,-52.5857)">
			<title>Dynamic connector.1032</title>
			<desc>142.86</desc>
			<v:textBlock v:margins="rect(4,4,4,4)"/>
			<v:textRect cx="-2.36081E-008" cy="297.761" width="40" height="17.6036"/>
			<path d="M0 297.76 L-17.81 286.81" class="st4"/>
			<rect v:rectContext="textBkgnd" x="-11.1467" y="292.961" width="22.2935" height="9.59985" class="st6"/>
			<text x="-11.15" y="300.16" class="st11" v:langID="1033"><v:paragraph v:horizAlign="1"/><v:tabList/>142.86</text>		</g>
		<g id="shape1033-139" v:mID="1033" v:groupContext="shape" v:layerMember="0" transform="translate(342.12,-52.5857)">
			<title>Dynamic connector.1033</title>
			<desc>2.28</desc>
			<v:textBlock v:margins="rect(4,4,4,4)"/>
			<v:textRect cx="-2.3608E-008" cy="297.761" width="40" height="17.6036"/>
			<path d="M0 297.76 L-17.81 286.81" class="st4"/>
			<rect v:rectContext="textBkgnd" x="-7.09189" y="292.961" width="14.1839" height="9.59985" class="st6"/>
			<text x="-7.09" y="300.16" class="st11" v:langID="1033"><v:paragraph v:horizAlign="1"/><v:tabList/>2.28</text>		</g>
	</g>
</svg>
