<?xml version="1.0" encoding="UTF-8" standalone="no"?>
<!DOCTYPE svg PUBLIC "-//W3C//DTD SVG 1.1//EN" "http://www.w3.org/Graphics/SVG/1.1/DTD/svg11.dtd">
<!-- Generated by Microsoft Visio, SVG Export mediationmodel.svg Page-1 -->
<svg xmlns="http://www.w3.org/2000/svg" xmlns:xlink="http://www.w3.org/1999/xlink" xmlns:ev="http://www.w3.org/2001/xml-events"
		xmlns:v="http://schemas.microsoft.com/visio/2003/SVGExtensions/" width="13.6064in" height="8.36357in"
		viewBox="0 0 979.664 602.177" xml:space="preserve" color-interpolation-filters="sRGB" class="st7">
	<v:documentProperties v:langID="1033" v:metric="true" v:viewMarkup="false">
		<v:userDefs>
			<v:ud v:nameU="msvNoAutoConnect" v:val="VT0(1):26"/>
		</v:userDefs>
	</v:documentProperties>

	<style type="text/css">
	<![CDATA[
		.st1 {fill:#ffffff;stroke:#000000;stroke-linecap:round;stroke-linejoin:round;stroke-width:0.24}
		.st2 {fill:#000000;font-family:Arial;font-size:1.33333em}
		.st3 {font-size:1em}
		.st4 {marker-end:url(#mrkr4-57);stroke:#000000;stroke-linecap:round;stroke-linejoin:round;stroke-width:0.75}
		.st5 {fill:#000000;fill-opacity:1;stroke:#000000;stroke-opacity:1;stroke-width:0.22935779816514}
		.st6 {fill:#ffffff;stroke:none;stroke-linecap:butt;stroke-width:7.2}
		.st7 {fill:none;fill-rule:evenodd;font-size:12px;overflow:visible;stroke-linecap:square;stroke-miterlimit:3}
	]]>
	</style>

	<defs id="Markers">
		<g id="lend4">
			<path d="M 2 1 L 0 0 L 2 -1 L 2 1 " style="stroke:none"/>
		</g>
		<marker id="mrkr4-57" class="st5" v:arrowType="4" v:arrowSize="2" v:setback="8.72" refX="-8.72" orient="auto"
				markerUnits="strokeWidth" overflow="visible">
			<use xlink:href="#lend4" transform="scale(-4.36,-4.36) "/>
		</marker>
	</defs>
	<g v:mID="0" v:index="1" v:groupContext="foregroundPage">
		<title>Page-1</title>
		<v:pageProperties v:drawingScale="0.0393701" v:pageScale="0.0393701" v:drawingUnits="24" v:shadowOffsetX="8.50394"
				v:shadowOffsetY="-8.50394"/>
		<v:layer v:name="Connector" v:index="0"/>
		<g id="shape1-1" v:mID="1" v:groupContext="shape" transform="translate(18.12,-333.071)">
			<title>Rectangle</title>
			<desc>Anxiety (baseline)</desc>
			<v:userDefs>
				<v:ud v:nameU="visVersion" v:val="VT0(15):26"/>
			</v:userDefs>
			<v:textBlock v:margins="rect(4,4,4,4)" v:tabSpace="42.5197"/>
			<v:textRect cx="56.6929" cy="566.744" width="113.39" height="70.8661"/>
			<rect x="0" y="531.311" width="113.386" height="70.8661" class="st1"/>
			<text x="30.46" y="561.94" class="st2" v:langID="1033"><v:paragraph v:horizAlign="1"/><v:tabList/>Anxiety <tspan
						x="21.56" dy="1.2em" class="st3">(</tspan>baseline)</text>		</g>
		<g id="shape2-5" v:mID="2" v:groupContext="shape" transform="translate(350.116,-333.071)">
			<title>Rectangle.2</title>
			<desc>Anxiety (6-month)</desc>
			<v:userDefs>
				<v:ud v:nameU="visVersion" v:val="VT0(15):26"/>
			</v:userDefs>
			<v:textBlock v:margins="rect(4,4,4,4)" v:tabSpace="42.5197"/>
			<v:textRect cx="56.6929" cy="566.744" width="113.39" height="70.8661"/>
			<rect x="0" y="531.311" width="113.386" height="70.8661" class="st1"/>
			<text x="30.46" y="561.94" class="st2" v:langID="1033"><v:paragraph v:horizAlign="1"/><v:tabList/>Anxiety <v:lf/><tspan
						x="22.02" dy="1.2em" class="st3">(</tspan>6-month)</text>		</g>
		<g id="shape3-9" v:mID="3" v:groupContext="shape" transform="translate(598.88,-333.071)">
			<title>Rectangle.3</title>
			<desc>Anxiety (12-month)</desc>
			<v:userDefs>
				<v:ud v:nameU="visVersion" v:val="VT0(15):26"/>
			</v:userDefs>
			<v:textBlock v:margins="rect(4,4,4,4)" v:tabSpace="42.5197"/>
			<v:textRect cx="56.6929" cy="566.744" width="113.39" height="70.8661"/>
			<rect x="0" y="531.311" width="113.386" height="70.8661" class="st1"/>
			<text x="30.46" y="561.94" class="st2" v:langID="1033"><v:paragraph v:horizAlign="1"/><v:tabList/>Anxiety<v:lf/><tspan
						x="17.57" dy="1.2em" class="st3">(</tspan>12-month)</text>		</g>
		<g id="shape4-13" v:mID="4" v:groupContext="shape" transform="translate(847.816,-333.071)">
			<title>Rectangle.4</title>
			<desc>Anxiety (18-month)</desc>
			<v:userDefs>
				<v:ud v:nameU="visVersion" v:val="VT0(15):26"/>
			</v:userDefs>
			<v:textBlock v:margins="rect(4,4,4,4)" v:tabSpace="42.5197"/>
			<v:textRect cx="56.6929" cy="566.744" width="113.39" height="70.8661"/>
			<rect x="0" y="531.311" width="113.386" height="70.8661" class="st1"/>
			<text x="30.46" y="561.94" class="st2" v:langID="1033"><v:paragraph v:horizAlign="1"/><v:tabList/>Anxiety<v:lf/><tspan
						x="17.57" dy="1.2em" class="st3">(</tspan>18-month)</text>		</g>
		<g id="shape5-17" v:mID="5" v:groupContext="shape" transform="translate(18.4621,-177.165)">
			<title>Rectangle.5</title>
			<desc>Social Support (baseline)</desc>
			<v:userDefs>
				<v:ud v:nameU="visVersion" v:val="VT0(15):26"/>
			</v:userDefs>
			<v:textBlock v:margins="rect(4,4,4,4)" v:tabSpace="42.5197"/>
			<v:textRect cx="56.6929" cy="566.744" width="113.39" height="70.8661"/>
			<rect x="0" y="531.311" width="113.386" height="70.8661" class="st1"/>
			<text x="4.66" y="561.94" class="st2" v:langID="1033"><v:paragraph v:horizAlign="1"/><v:tabList/>Social Support <tspan
						x="21.56" dy="1.2em" class="st3">(</tspan>baseline)</text>		</g>
		<g id="shape6-21" v:mID="6" v:groupContext="shape" transform="translate(350.458,-177.165)">
			<title>Rectangle.6</title>
			<desc>Social Support (6-month)</desc>
			<v:userDefs>
				<v:ud v:nameU="visVersion" v:val="VT0(15):26"/>
			</v:userDefs>
			<v:textBlock v:margins="rect(4,4,4,4)" v:tabSpace="42.5197"/>
			<v:textRect cx="56.6929" cy="566.744" width="113.39" height="70.8661"/>
			<rect x="0" y="531.311" width="113.386" height="70.8661" class="st1"/>
			<text x="4.66" y="561.94" class="st2" v:langID="1033"><v:paragraph v:horizAlign="1"/><v:tabList/>Social Support<v:lf/><tspan
						x="22.02" dy="1.2em" class="st3">(</tspan>6-month)</text>		</g>
		<g id="shape7-25" v:mID="7" v:groupContext="shape" transform="translate(599.222,-177.165)">
			<title>Rectangle.7</title>
			<desc>Social Support (12-month)</desc>
			<v:userDefs>
				<v:ud v:nameU="visVersion" v:val="VT0(15):26"/>
			</v:userDefs>
			<v:textBlock v:margins="rect(4,4,4,4)" v:tabSpace="42.5197"/>
			<v:textRect cx="56.6929" cy="566.744" width="113.39" height="70.8661"/>
			<rect x="0" y="531.311" width="113.386" height="70.8661" class="st1"/>
			<text x="4.66" y="561.94" class="st2" v:langID="1033"><v:paragraph v:horizAlign="1"/><v:tabList/>Social Support<v:lf/><tspan
						x="17.57" dy="1.2em" class="st3">(</tspan>12-month)</text>		</g>
		<g id="shape8-29" v:mID="8" v:groupContext="shape" transform="translate(848.158,-177.165)">
			<title>Rectangle.8</title>
			<desc>Social Support (18-month)</desc>
			<v:userDefs>
				<v:ud v:nameU="visVersion" v:val="VT0(15):26"/>
			</v:userDefs>
			<v:textBlock v:margins="rect(4,4,4,4)" v:tabSpace="42.5197"/>
			<v:textRect cx="56.6929" cy="566.744" width="113.39" height="70.8661"/>
			<rect x="0" y="531.311" width="113.386" height="70.8661" class="st1"/>
			<text x="4.66" y="561.94" class="st2" v:langID="1033"><v:paragraph v:horizAlign="1"/><v:tabList/>Social Support<v:lf/><tspan
						x="17.57" dy="1.2em" class="st3">(</tspan>18-month)</text>		</g>
		<g id="shape9-33" v:mID="9" v:groupContext="shape" transform="translate(18.3546,-21.2598)">
			<title>Rectangle.9</title>
			<desc>Depression (baseline)</desc>
			<v:userDefs>
				<v:ud v:nameU="visVersion" v:val="VT0(15):26"/>
			</v:userDefs>
			<v:textBlock v:margins="rect(4,4,4,4)" v:tabSpace="42.5197"/>
			<v:textRect cx="56.6929" cy="566.744" width="113.39" height="70.8661"/>
			<rect x="0" y="531.311" width="113.386" height="70.8661" class="st1"/>
			<text x="16.23" y="561.94" class="st2" v:langID="1033"><v:paragraph v:horizAlign="1"/><v:tabList/>Depression<v:lf/><tspan
						x="21.56" dy="1.2em" class="st3">(</tspan>baseline)</text>		</g>
		<g id="shape10-37" v:mID="10" v:groupContext="shape" transform="translate(350.35,-21.2598)">
			<title>Rectangle.10</title>
			<desc>Depression (6-month)</desc>
			<v:userDefs>
				<v:ud v:nameU="visVersion" v:val="VT0(15):26"/>
			</v:userDefs>
			<v:textBlock v:margins="rect(4,4,4,4)" v:tabSpace="42.5197"/>
			<v:textRect cx="56.6929" cy="566.744" width="113.39" height="70.8661"/>
			<rect x="0" y="531.311" width="113.386" height="70.8661" class="st1"/>
			<text x="16.23" y="561.94" class="st2" v:langID="1033"><v:paragraph v:horizAlign="1"/><v:tabList/>Depression<v:lf/><tspan
						x="22.02" dy="1.2em" class="st3">(</tspan>6-month)</text>		</g>
		<g id="shape11-41" v:mID="11" v:groupContext="shape" transform="translate(599.115,-21.2598)">
			<title>Rectangle.11</title>
			<desc>Depression (12-month)</desc>
			<v:userDefs>
				<v:ud v:nameU="visVersion" v:val="VT0(15):26"/>
			</v:userDefs>
			<v:textBlock v:margins="rect(4,4,4,4)" v:tabSpace="42.5197"/>
			<v:textRect cx="56.6929" cy="566.744" width="113.39" height="70.8661"/>
			<rect x="0" y="531.311" width="113.386" height="70.8661" class="st1"/>
			<text x="16.23" y="561.94" class="st2" v:langID="1033"><v:paragraph v:horizAlign="1"/><v:tabList/>Depression<v:lf/><tspan
						x="17.57" dy="1.2em" class="st3">(</tspan>12-month)</text>		</g>
		<g id="shape12-45" v:mID="12" v:groupContext="shape" transform="translate(848.05,-21.2598)">
			<title>Rectangle.12</title>
			<desc>Depression (18-month)</desc>
			<v:userDefs>
				<v:ud v:nameU="visVersion" v:val="VT0(15):26"/>
			</v:userDefs>
			<v:textBlock v:margins="rect(4,4,4,4)" v:tabSpace="42.5197"/>
			<v:textRect cx="56.6929" cy="566.744" width="113.39" height="70.8661"/>
			<rect x="0" y="531.311" width="113.386" height="70.8661" class="st1"/>
			<text x="16.23" y="561.94" class="st2" v:langID="1033"><v:paragraph v:horizAlign="1"/><v:tabList/>Depression<v:lf/><tspan
						x="17.57" dy="1.2em" class="st3">(</tspan>18-month)</text>		</g>
		<g id="shape14-49" v:mID="14" v:groupContext="shape" transform="translate(152.766,-513.191)">
			<title>Rectangle.14</title>
			<desc>Intervention</desc>
			<v:userDefs>
				<v:ud v:nameU="visVersion" v:val="VT0(15):26"/>
			</v:userDefs>
			<v:textBlock v:margins="rect(4,4,4,4)" v:tabSpace="42.5197"/>
			<v:textRect cx="56.6929" cy="566.744" width="113.39" height="70.8661"/>
			<rect x="0" y="531.311" width="113.386" height="70.8661" class="st1"/>
			<text x="14.89" y="571.54" class="st2" v:langID="1033"><v:paragraph v:horizAlign="1"/><v:tabList/>Intervention</text>		</g>
		<g id="shape15-52" v:mID="15" v:groupContext="shape" v:layerMember="0" transform="translate(209.459,-513.191)">
			<title>Dynamic connector</title>
			<desc>-2.6</desc>
			<v:textBlock v:margins="rect(4,4,4,4)" v:tabSpace="42.5197"/>
			<v:textRect cx="70.3285" cy="674.52" width="80" height="27.2035"/>
			<path d="M0 602.18 L136.1 742.17" class="st4"/>
			<rect v:rectContext="textBkgnd" x="56.5436" y="664.921" width="27.5702" height="19.2" class="st6"/>
			<text x="56.54" y="679.32" class="st2" v:langID="1033"><v:paragraph v:horizAlign="1"/><v:tabList/>-2.6</text>		</g>
		<g id="shape16-60" v:mID="16" v:groupContext="shape" v:layerMember="0" transform="translate(209.459,-513.191)">
			<title>Dynamic connector.16</title>
			<desc>.92</desc>
			<v:textBlock v:margins="rect(4,4,4,4)" v:tabSpace="42.5197"/>
			<v:textRect cx="118.372" cy="856.488" width="80" height="27.2035"/>
			<path d="M0 602.18 L138.22 896.85" class="st4"/>
			<rect v:rectContext="textBkgnd" x="107.251" y="846.888" width="22.2421" height="19.2" class="st6"/>
			<text x="107.25" y="861.29" class="st2" v:langID="1033"><v:paragraph v:horizAlign="1"/><v:tabList/>.92</text>		</g>
		<g id="shape17-67" v:mID="17" v:groupContext="shape" v:layerMember="0" transform="translate(209.459,-513.191)">
			<title>Dynamic connector.17</title>
			<desc>-1.68</desc>
			<v:textBlock v:margins="rect(4,4,4,4)" v:tabSpace="42.5197"/>
			<v:textRect cx="121.205" cy="993.922" width="80" height="27.2035"/>
			<path d="M0 602.18 L138.96 1052.43" class="st4"/>
			<rect v:rectContext="textBkgnd" x="102.971" y="984.323" width="36.4686" height="19.2" class="st6"/>
			<text x="102.97" y="998.72" class="st2" v:langID="1033"><v:paragraph v:horizAlign="1"/><v:tabList/>-1.68</text>		</g>
		<g id="shape18-74" v:mID="18" v:groupContext="shape" v:layerMember="0" transform="translate(209.459,-513.191)">
			<title>Dynamic connector.18</title>
			<desc>-1.15</desc>
			<v:textBlock v:margins="rect(4,4,4,4)" v:tabSpace="42.5197"/>
			<v:textRect cx="319.627" cy="705.235" width="80" height="27.2035"/>
			<path d="M0 602.18 L383.2 726.46" class="st4"/>
			<rect v:rectContext="textBkgnd" x="301.393" y="695.635" width="36.4686" height="19.2" class="st6"/>
			<text x="301.39" y="710.03" class="st2" v:langID="1033"><v:paragraph v:horizAlign="1"/><v:tabList/>-1.15</text>		</g>
		<g id="shape19-81" v:mID="19" v:groupContext="shape" v:layerMember="0" transform="translate(209.459,-513.191)">
			<title>Dynamic connector.19</title>
			<desc>-1.12</desc>
			<v:textBlock v:margins="rect(4,4,4,4)" v:tabSpace="42.5197"/>
			<v:textRect cx="406.085" cy="983.842" width="80" height="27.2035"/>
			<path d="M0 602.18 L281.56 867.79 A2.3622 2.3622 0 1 1 285 871.03 L356.01 938.02 A2.3622 2.3622 0 0 1 359.44 941.26 L441.59
						 1018.75" class="st4"/>
			<rect v:rectContext="textBkgnd" x="387.85" y="974.243" width="36.4686" height="19.2" class="st6"/>
			<text x="387.85" y="988.64" class="st2" v:langID="1033"><v:paragraph v:horizAlign="1"/><v:tabList/>-1.12</text>		</g>
		<g id="shape20-88" v:mID="20" v:groupContext="shape" v:layerMember="0" transform="translate(131.506,-361.417)">
			<title>Dynamic connector.20</title>
			<desc>.41</desc>
			<v:textBlock v:margins="rect(4,4,4,4)" v:tabSpace="42.5197"/>
			<v:textRect cx="50.3394" cy="595.09" width="80" height="27.2035"/>
			<path d="M0 595.09 L120.25 595.09 A2.3622 2.3622 0 0 1 124.97 595.09 L143.46 595.09 A2.3622 2.3622 0 1 1 148.18 595.09
						 L212.07 595.09" class="st4"/>
			<rect v:rectContext="textBkgnd" x="39.2183" y="585.491" width="22.2421" height="19.2" class="st6"/>
			<text x="39.22" y="599.89" class="st2" v:langID="1033"><v:paragraph v:horizAlign="1"/><v:tabList/>.41</text>		</g>
		<g id="shape21-95" v:mID="21" v:groupContext="shape" v:layerMember="0" transform="translate(463.501,-361.417)">
			<title>Dynamic connector.21</title>
			<desc>.55</desc>
			<v:textBlock v:margins="rect(4,4,4,4)" v:tabSpace="42.5197"/>
			<v:textRect cx="67.6894" cy="595.09" width="80" height="27.2035"/>
			<path d="M0 595.09 L128.84 595.09" class="st4"/>
			<rect v:rectContext="textBkgnd" x="56.5683" y="585.491" width="22.2421" height="19.2" class="st6"/>
			<text x="56.57" y="599.89" class="st2" v:langID="1033"><v:paragraph v:horizAlign="1"/><v:tabList/>.55</text>		</g>
		<g id="shape22-102" v:mID="22" v:groupContext="shape" v:layerMember="0" transform="translate(712.266,-361.417)">
			<title>Dynamic connector.22</title>
			<desc>.58</desc>
			<v:textBlock v:margins="rect(4,4,4,4)" v:tabSpace="42.5197"/>
			<v:textRect cx="67.7749" cy="595.09" width="80" height="27.2035"/>
			<path d="M0 595.09 L129.01 595.09" class="st4"/>
			<rect v:rectContext="textBkgnd" x="56.6538" y="585.491" width="22.2421" height="19.2" class="st6"/>
			<text x="56.65" y="599.89" class="st2" v:langID="1033"><v:paragraph v:horizAlign="1"/><v:tabList/>.58</text>		</g>
		<g id="shape23-109" v:mID="23" v:groupContext="shape" v:layerMember="0" transform="translate(131.848,-205.512)">
			<title>Dynamic connector.23</title>
			<desc>.62</desc>
			<v:textBlock v:margins="rect(4,4,4,4)" v:tabSpace="42.5197"/>
			<v:textRect cx="49.9973" cy="595.09" width="80" height="27.2035"/>
			<path d="M0 595.09 L168.02 595.09 A2.3622 2.3622 0 1 1 172.75 595.09 L212.07 595.09" class="st4"/>
			<rect v:rectContext="textBkgnd" x="38.8762" y="585.491" width="22.2421" height="19.2" class="st6"/>
			<text x="38.88" y="599.89" class="st2" v:langID="1033"><v:paragraph v:horizAlign="1"/><v:tabList/>.62</text>		</g>
		<g id="shape24-116" v:mID="24" v:groupContext="shape" v:layerMember="0" transform="translate(463.844,-205.512)">
			<title>Dynamic connector.24</title>
			<desc>.65</desc>
			<v:textBlock v:margins="rect(4,4,4,4)" v:tabSpace="42.5197"/>
			<v:textRect cx="67.6894" cy="595.09" width="80" height="27.2035"/>
			<path d="M0 595.09 L61.9 595.09 A2.3622 2.3622 0 1 1 66.62 595.09 L128.84 595.09" class="st4"/>
			<rect v:rectContext="textBkgnd" x="56.5683" y="585.491" width="22.2421" height="19.2" class="st6"/>
			<text x="56.57" y="599.89" class="st2" v:langID="1033"><v:paragraph v:horizAlign="1"/><v:tabList/>.65</text>		</g>
		<g id="shape25-123" v:mID="25" v:groupContext="shape" v:layerMember="0" transform="translate(712.608,-205.512)">
			<title>Dynamic connector.25</title>
			<desc>.61</desc>
			<v:textBlock v:margins="rect(4,4,4,4)" v:tabSpace="42.5197"/>
			<v:textRect cx="67.7749" cy="595.09" width="80" height="27.2035"/>
			<path d="M0 595.09 L129.01 595.09" class="st4"/>
			<rect v:rectContext="textBkgnd" x="56.6538" y="585.491" width="22.2421" height="19.2" class="st6"/>
			<text x="56.65" y="599.89" class="st2" v:langID="1033"><v:paragraph v:horizAlign="1"/><v:tabList/>.61</text>		</g>
		<g id="shape26-130" v:mID="26" v:groupContext="shape" v:layerMember="0" transform="translate(131.74,-49.6063)">
			<title>Dynamic connector.26</title>
			<desc>.45</desc>
			<v:textBlock v:margins="rect(4,4,4,4)" v:tabSpace="42.5197"/>
			<v:textRect cx="47.2702" cy="593.673" width="80" height="27.2035"/>
			<path d="M0 595.09 L212.07 595.09" class="st4"/>
			<rect v:rectContext="textBkgnd" x="36.1491" y="584.073" width="22.2421" height="19.2" class="st6"/>
			<text x="36.15" y="598.47" class="st2" v:langID="1033"><v:paragraph v:horizAlign="1"/><v:tabList/>.45</text>		</g>
		<g id="shape27-137" v:mID="27" v:groupContext="shape" v:layerMember="0" transform="translate(463.736,-49.6063)">
			<title>Dynamic connector.27</title>
			<desc>.63</desc>
			<v:textBlock v:margins="rect(4,4,4,4)" v:tabSpace="42.5197"/>
			<v:textRect cx="67.6894" cy="595.09" width="80" height="27.2035"/>
			<path d="M0 595.09 L128.84 595.09" class="st4"/>
			<rect v:rectContext="textBkgnd" x="56.5683" y="585.491" width="22.2421" height="19.2" class="st6"/>
			<text x="56.57" y="599.89" class="st2" v:langID="1033"><v:paragraph v:horizAlign="1"/><v:tabList/>.63</text>		</g>
		<g id="shape28-144" v:mID="28" v:groupContext="shape" v:layerMember="0" transform="translate(712.501,-49.6063)">
			<title>Dynamic connector.28</title>
			<desc>.53</desc>
			<v:textBlock v:margins="rect(4,4,4,4)" v:tabSpace="42.5197"/>
			<v:textRect cx="67.7749" cy="595.09" width="80" height="27.2035"/>
			<path d="M0 595.09 L129.01 595.09" class="st4"/>
			<rect v:rectContext="textBkgnd" x="56.6538" y="585.491" width="22.2421" height="19.2" class="st6"/>
			<text x="56.65" y="599.89" class="st2" v:langID="1033"><v:paragraph v:horizAlign="1"/><v:tabList/>.53</text>		</g>
		<g id="shape29-151" v:mID="29" v:groupContext="shape" v:layerMember="0" transform="translate(131.848,-212.598)">
			<title>Dynamic connector.29</title>
			<desc>-.33</desc>
			<v:textBlock v:margins="rect(4,4,4,4)" v:tabSpace="42.5197"/>
			<v:textRect cx="74.3752" cy="548.319" width="80" height="27.2035"/>
			<path d="M0 602.18 L137.69 503.83 A2.3622 2.3622 0 1 1 141.53 501.08 L161.82 486.59 A2.3622 2.3622 0 1 1 165.67 483.84
						 L212.95 450.07" class="st4"/>
			<rect v:rectContext="textBkgnd" x="60.5903" y="538.719" width="27.5702" height="19.2" class="st6"/>
			<text x="60.59" y="553.12" class="st2" v:langID="1033"><v:paragraph v:horizAlign="1"/><v:tabList/>-.33</text>		</g>
		<g id="shape30-158" v:mID="30" v:groupContext="shape" v:layerMember="0" transform="translate(131.848,-212.598)">
			<title>Dynamic connector.30</title>
			<desc>-.18</desc>
			<v:textBlock v:margins="rect(4,4,4,4)" v:tabSpace="42.5197"/>
			<v:textRect cx="74.3752" cy="654.618" width="80" height="27.2035"/>
			<path d="M0 602.18 L213.18 754.28" class="st4"/>
			<rect v:rectContext="textBkgnd" x="60.5903" y="645.018" width="27.5702" height="19.2" class="st6"/>
			<text x="60.59" y="659.42" class="st2" v:langID="1033"><v:paragraph v:horizAlign="1"/><v:tabList/>-.18</text>		</g>
		<g id="shape31-165" v:mID="31" v:groupContext="shape" v:layerMember="0" transform="translate(131.74,-56.6929)">
			<title>Dynamic connector.31</title>
			<desc>-.05</desc>
			<v:textBlock v:margins="rect(4,4,4,4)" v:tabSpace="42.5197"/>
			<v:textRect cx="75.6166" cy="559.657" width="80" height="27.2035"/>
			<path d="M0 602.18 L119.84 534.34 A2.3622 2.3622 0 0 1 123.95 532.01 L184.04 497.99 A2.3622 2.3622 0 1 1 188.15 495.67
						 L213.03 481.59" class="st4"/>
			<rect v:rectContext="textBkgnd" x="61.8316" y="550.058" width="27.5702" height="19.2" class="st6"/>
			<text x="61.83" y="564.46" class="st2" v:langID="1033"><v:paragraph v:horizAlign="1"/><v:tabList/>-.05</text>		</g>
		<g id="shape32-172" v:mID="32" v:groupContext="shape" v:layerMember="0" transform="translate(463.844,-212.598)">
			<title>Dynamic connector.32</title>
			<desc>-.18</desc>
			<v:textBlock v:margins="rect(4,4,4,4)" v:tabSpace="42.5197"/>
			<v:textRect cx="49.6552" cy="546.901" width="80" height="27.2035"/>
			<path d="M0 602.18 L130.75 451.21" class="st4"/>
			<rect v:rectContext="textBkgnd" x="35.8702" y="537.302" width="27.5702" height="19.2" class="st6"/>
			<text x="35.87" y="551.7" class="st2" v:langID="1033"><v:paragraph v:horizAlign="1"/><v:tabList/>-.18</text>		</g>
		<g id="shape33-179" v:mID="33" v:groupContext="shape" v:layerMember="0" transform="translate(463.844,-212.598)">
			<title>Dynamic connector.33</title>
			<desc>-.12</desc>
			<v:textBlock v:margins="rect(4,4,4,4)" v:tabSpace="42.5197"/>
			<v:textRect cx="49.6552" cy="660.287" width="80" height="27.2035"/>
			<path d="M0 602.18 L130.99 753.14" class="st4"/>
			<rect v:rectContext="textBkgnd" x="35.8702" y="650.688" width="27.5702" height="19.2" class="st6"/>
			<text x="35.87" y="665.09" class="st2" v:langID="1033"><v:paragraph v:horizAlign="1"/><v:tabList/>-.12</text>		</g>
		<g id="shape34-186" v:mID="34" v:groupContext="shape" v:layerMember="0" transform="translate(463.736,-56.6929)">
			<title>Dynamic connector.34</title>
			<desc>-.06</desc>
			<v:textBlock v:margins="rect(4,4,4,4)" v:tabSpace="42.5197"/>
			<v:textRect cx="49.7627" cy="545.484" width="80" height="27.2035"/>
			<path d="M0 602.18 L66.19 526.01 A2.3622 2.3622 0 1 1 69.29 522.44 L131.2 451.21" class="st4"/>
			<rect v:rectContext="textBkgnd" x="35.9777" y="535.884" width="27.5702" height="19.2" class="st6"/>
			<text x="35.98" y="550.28" class="st2" v:langID="1033"><v:paragraph v:horizAlign="1"/><v:tabList/>-.06</text>		</g>
		<g id="shape35-193" v:mID="35" v:groupContext="shape" v:layerMember="0" transform="translate(712.608,-212.598)">
			<title>Dynamic connector.35</title>
			<desc>-.15</desc>
			<v:textBlock v:margins="rect(4,4,4,4)" v:tabSpace="42.5197"/>
			<v:textRect cx="67.3473" cy="680.13" width="80" height="27.2035"/>
			<path d="M0 602.18 L131.15 753.15" class="st4"/>
			<rect v:rectContext="textBkgnd" x="53.5623" y="670.53" width="27.5702" height="19.2" class="st6"/>
			<text x="53.56" y="684.93" class="st2" v:langID="1033"><v:paragraph v:horizAlign="1"/><v:tabList/>-.15</text>		</g>
	</g>
</svg>
