<?xml version="1.0" encoding="UTF-8" standalone="no"?>
<!DOCTYPE svg PUBLIC "-//W3C//DTD SVG 1.1//EN" "http://www.w3.org/Graphics/SVG/1.1/DTD/svg11.dtd">
<!-- Generated by Microsoft Visio, SVG Export pc_lsem.svg Page-1 -->
<svg xmlns="http://www.w3.org/2000/svg" xmlns:xlink="http://www.w3.org/1999/xlink" xmlns:ev="http://www.w3.org/2001/xml-events"
		xmlns:v="http://schemas.microsoft.com/visio/2003/SVGExtensions/" width="9.90491in" height="5.1087in"
		viewBox="0 0 713.154 367.826" xml:space="preserve" color-interpolation-filters="sRGB" class="st17">
	<v:documentProperties v:langID="1033" v:viewMarkup="false">
		<v:userDefs>
			<v:ud v:nameU="msvNoAutoConnect" v:val="VT0(1):26"/>
		</v:userDefs>
	</v:documentProperties>

	<style type="text/css">
	<![CDATA[
		.st1 {fill:#ffffff;stroke:#000000;stroke-linecap:round;stroke-linejoin:round;stroke-width:0.24}
		.st2 {fill:#000000;font-family:Arial;font-size:0.833336em}
		.st3 {marker-end:url(#mrkr5-9);stroke:#000000;stroke-linecap:round;stroke-linejoin:round;stroke-width:0.75}
		.st4 {fill:#000000;fill-opacity:1;stroke:#000000;stroke-opacity:1;stroke-width:0.22935779816514}
		.st5 {fill:#ffffff;stroke:none;stroke-linecap:butt;stroke-width:7.2}
		.st6 {fill:#000000;font-family:Arial;font-size:0.666664em}
		.st7 {font-size:1em}
		.st8 {fill:#000000;font-family:Arial;font-size:1.00001em}
		.st9 {fill:#ffffff;stroke:none;stroke-linecap:butt}
		.st10 {fill:#000000;font-family:Arial;font-size:1.00001em;font-weight:bold}
		.st11 {fill:none;stroke:none;stroke-linecap:round;stroke-linejoin:round;stroke-width:0.75}
		.st12 {baseline-shift:32.4941%;font-size:0.649882em}
		.st13 {baseline-shift:-32.4941%;font-size:0.649882em}
		.st14 {font-size:1em;font-style:italic}
		.st15 {marker-end:url(#mrkr5-280);marker-start:url(#mrkr5-278);stroke:#000000;stroke-dasharray:0,3.75;stroke-linecap:round;stroke-linejoin:round;stroke-width:0.75}
		.st16 {fill:#000000;font-family:Arial;font-size:0.833336em;font-weight:bold}
		.st17 {fill:none;fill-rule:evenodd;font-size:12px;overflow:visible;stroke-linecap:square;stroke-miterlimit:3}
	]]>
	</style>

	<defs id="Markers">
		<g id="lend5">
			<path d="M 2 1 L 0 0 L 1.98117 -0.993387 C 1.67173 -0.364514 1.67301 0.372642 1.98465 1.00043 " style="stroke:none"/>
		</g>
		<marker id="mrkr5-9" class="st4" v:arrowType="5" v:arrowSize="2" v:setback="7.63" refX="-7.63" orient="auto"
				markerUnits="strokeWidth" overflow="visible">
			<use xlink:href="#lend5" transform="scale(-4.36,-4.36) "/>
		</marker>
		<marker id="mrkr5-278" class="st4" v:arrowType="5" v:arrowSize="2" v:setback="7.15" refX="7.15" orient="auto"
				markerUnits="strokeWidth" overflow="visible">
			<use xlink:href="#lend5" transform="scale(4.36) "/>
		</marker>
		<marker id="mrkr5-280" class="st4" v:arrowType="5" v:arrowSize="2" v:setback="7.15" refX="-7.15" orient="auto"
				markerUnits="strokeWidth" overflow="visible">
			<use xlink:href="#lend5" transform="scale(-4.36,-4.36) "/>
		</marker>
	</defs>
	<g v:mID="0" v:index="1" v:groupContext="foregroundPage">
		<title>Page-1</title>
		<v:pageProperties v:drawingScale="1" v:pageScale="1" v:drawingUnits="19" v:shadowOffsetX="9" v:shadowOffsetY="-9"/>
		<v:layer v:name="Connector" v:index="0"/>
		<v:layer v:name="Container" v:index="1"/>
		<g id="shape1055-1" v:mID="1055" v:groupContext="shape" transform="translate(65,-287.849)">
			<title>Rectangle.1055</title>
			<desc>Optimism</desc>
			<v:userDefs>
				<v:ud v:nameU="visVersion" v:val="VT0(15):26"/>
			</v:userDefs>
			<v:textBlock v:margins="rect(4,4,4,4)"/>
			<v:textRect cx="33.75" cy="353.042" width="67.51" height="29.5697"/>
			<rect x="0" y="338.257" width="67.5" height="29.5697" class="st1"/>
			<text x="12.64" y="356.04" class="st2" v:langID="1033"><v:paragraph v:horizAlign="1"/><v:tabList/>Optimism</text>		</g>
		<g id="shape1056-4" v:mID="1056" v:groupContext="shape" v:layerMember="0" transform="translate(38,-311.714)">
			<title>Dynamic connector.1056</title>
			<desc>.37</desc>
			<v:textBlock v:margins="rect(4,4,4,4)"/>
			<v:textRect cx="-1.16802E-009" cy="376.747" width="40" height="17.6036"/>
			<path d="M0 376.75 L21.28 376.87" class="st3"/>
			<rect v:rectContext="textBkgnd" x="-5.56039" y="371.947" width="11.1209" height="9.59985" class="st5"/>
			<text x="-5.56" y="379.15" class="st6" v:langID="1033"><v:paragraph v:horizAlign="1"/><v:tabList/>.37</text>		</g>
		<g id="shape1057-12" v:mID="1057" v:groupContext="shape" transform="translate(65,-246.064)">
			<title>Rectangle.1057</title>
			<desc>Low Pessimism</desc>
			<v:userDefs>
				<v:ud v:nameU="visVersion" v:val="VT0(15):26"/>
			</v:userDefs>
			<v:textBlock v:margins="rect(4,4,4,4)"/>
			<v:textRect cx="33.75" cy="353.042" width="67.51" height="29.5697"/>
			<rect x="0" y="338.257" width="67.5" height="29.5697" class="st1"/>
			<text x="24.58" y="350.04" class="st2" v:langID="1033"><v:paragraph v:horizAlign="1"/><v:tabList/>Low <tspan x="9.58"
						dy="1.2em" class="st7">Pessimism</tspan></text>		</g>
		<g id="shape1058-16" v:mID="1058" v:groupContext="shape" v:layerMember="0" transform="translate(38,-269.929)">
			<title>Dynamic connector.1058</title>
			<desc>.56</desc>
			<v:textBlock v:margins="rect(4,4,4,4)"/>
			<v:textRect cx="-1.16802E-009" cy="376.747" width="40" height="17.6036"/>
			<path d="M0 376.75 L21.28 376.87" class="st3"/>
			<rect v:rectContext="textBkgnd" x="-5.56039" y="371.947" width="11.1209" height="9.59985" class="st5"/>
			<text x="-5.56" y="379.15" class="st6" v:langID="1033"><v:paragraph v:horizAlign="1"/><v:tabList/>.56</text>		</g>
		<g id="shape1061-23" v:mID="1061" v:groupContext="shape" transform="translate(65,-202.742)">
			<title>Rectangle.1061</title>
			<desc>Emotional</desc>
			<v:userDefs>
				<v:ud v:nameU="visVersion" v:val="VT0(15):26"/>
			</v:userDefs>
			<v:textBlock v:margins="rect(4,4,4,4)"/>
			<v:textRect cx="33.75" cy="353.042" width="67.51" height="29.5697"/>
			<rect x="0" y="338.257" width="67.5" height="29.5697" class="st1"/>
			<text x="11.52" y="356.04" class="st2" v:langID="1033"><v:paragraph v:horizAlign="1"/><v:tabList/>Emotional</text>		</g>
		<g id="shape1062-26" v:mID="1062" v:groupContext="shape" v:layerMember="0" transform="translate(38,-226.607)">
			<title>Dynamic connector.1062</title>
			<desc>.12</desc>
			<v:textBlock v:margins="rect(4,4,4,4)"/>
			<v:textRect cx="-1.16802E-009" cy="376.747" width="40" height="17.6036"/>
			<path d="M0 376.75 L21.28 376.87" class="st3"/>
			<rect v:rectContext="textBkgnd" x="-5.56039" y="371.947" width="11.1209" height="9.59985" class="st5"/>
			<text x="-5.56" y="379.15" class="st6" v:langID="1033"><v:paragraph v:horizAlign="1"/><v:tabList/>.12</text>		</g>
		<g id="shape1072-33" v:mID="1072" v:groupContext="shape" transform="translate(180.344,-241.884)">
			<title>Ellipse.1072</title>
			<desc>Psychological Resources</desc>
			<v:userDefs>
				<v:ud v:nameU="visVersion" v:val="VT0(15):26"/>
			</v:userDefs>
			<v:textBlock v:margins="rect(4,4,4,4)"/>
			<v:textRect cx="49.5" cy="334.076" width="86.63" height="59.0625"/>
			<path d="M0 334.08 A49.5 33.75 0 1 1 99 334.08 A49.5 33.75 0 1 1 0 334.08 Z" class="st1"/>
			<text x="12.81" y="330.48" class="st8" v:langID="1033"><v:paragraph v:horizAlign="1"/><v:tabList/>Psychological <tspan
						x="20.82" dy="1.2em" class="st7">Resources</tspan></text>		</g>
		<g id="shape1077-37" v:mID="1077" v:groupContext="shape" v:layerMember="0" transform="translate(180.344,-275.634)">
			<title>Dynamic connector.1077</title>
			<desc>.79*</desc>
			<v:textBlock v:margins="rect(4,4,4,4)"/>
			<v:textRect cx="-23.9219" cy="354.326" width="50" height="20.0036"/>
			<path d="M0 367.83 L-42.86 343.64" class="st3"/>
			<rect v:rectContext="textBkgnd" x="-32.8184" y="348.327" width="17.7932" height="12.0001" class="st5"/>
			<text x="-32.82" y="357.33" class="st2" v:langID="1033"><v:paragraph v:horizAlign="1"/><v:tabList/>.79*</text>		</g>
		<g id="shape1078-44" v:mID="1078" v:groupContext="shape" v:layerMember="0" transform="translate(180.344,-277.242)">
			<title>Dynamic connector.1078</title>
			<desc>.66*</desc>
			<v:textBlock v:margins="rect(4,4,4,4)"/>
			<v:textRect cx="-23.9219" cy="376.826" width="50" height="20.0036"/>
			<path d="M0 369.43 L-42.38 382.53" class="st3"/>
			<rect v:rectContext="textBkgnd" x="-32.8184" y="370.827" width="17.7932" height="12.0001" class="st5"/>
			<text x="-32.82" y="379.83" class="st2" v:langID="1033"><v:paragraph v:horizAlign="1"/><v:tabList/>.66*</text>		</g>
		<g id="shape1080-51" v:mID="1080" v:groupContext="shape" v:layerMember="0" transform="translate(180.344,-142.349)">
			<title>Dynamic connector.1080</title>
			<desc>.94*</desc>
			<v:textBlock v:margins="rect(4,4,4,4)"/>
			<v:textRect cx="-23.9219" cy="330.237" width="50" height="20.0036"/>
			<path d="M0 367.83 L-44.77 297.48" class="st3"/>
			<rect v:rectContext="textBkgnd" x="-32.8184" y="324.238" width="17.7932" height="12.0001" class="st5"/>
			<text x="-32.82" y="333.24" class="st2" v:langID="1033"><v:paragraph v:horizAlign="1"/><v:tabList/>.94*</text>		</g>
		<g id="shape1082-58" v:mID="1082" v:groupContext="shape" v:layerMember="0" transform="translate(220.844,-220.454)">
			<title>Dynamic connector.1082</title>
			<desc>.62</desc>
			<v:textBlock v:margins="rect(4,4,4,4)"/>
			<v:textRect cx="9" cy="366.701" width="40" height="17.6036"/>
			<path d="M9 367.83 L9 352.12" class="st3"/>
			<rect v:rectContext="textBkgnd" x="3.43961" y="361.902" width="11.1209" height="9.59985" class="st5"/>
			<text x="3.44" y="369.1" class="st6" v:langID="1033"><v:paragraph v:horizAlign="1"/><v:tabList/>.62</text>		</g>
		<g id="shape1204-65" v:mID="1204" v:groupContext="shape" transform="translate(65,-164.527)">
			<title>Rectangle.1204</title>
			<desc>Informational</desc>
			<v:userDefs>
				<v:ud v:nameU="visVersion" v:val="VT0(15):26"/>
			</v:userDefs>
			<v:textBlock v:margins="rect(4,4,4,4)"/>
			<v:textRect cx="33.75" cy="353.042" width="67.51" height="29.5697"/>
			<rect x="0" y="338.257" width="67.5" height="29.5697" class="st1"/>
			<text x="4.85" y="356.04" class="st2" v:langID="1033"><v:paragraph v:horizAlign="1"/><v:tabList/>Informational</text>		</g>
		<g id="shape1205-68" v:mID="1205" v:groupContext="shape" v:layerMember="0" transform="translate(38,-188.392)">
			<title>Dynamic connector.1205</title>
			<desc>.83</desc>
			<v:textBlock v:margins="rect(4,4,4,4)"/>
			<v:textRect cx="0" cy="376.781" width="40" height="17.6036"/>
			<path d="M0 376.75 L21.28 376.87" class="st3"/>
			<rect v:rectContext="textBkgnd" x="-5.56039" y="371.982" width="11.1209" height="9.59985" class="st5"/>
			<text x="-5.56" y="379.18" class="st6" v:langID="1033"><v:paragraph v:horizAlign="1"/><v:tabList/>.83</text>		</g>
		<g id="shape1206-75" v:mID="1206" v:groupContext="shape" transform="translate(65,-128.527)">
			<title>Rectangle.1206</title>
			<desc>Instrumental</desc>
			<v:userDefs>
				<v:ud v:nameU="visVersion" v:val="VT0(15):26"/>
			</v:userDefs>
			<v:textBlock v:margins="rect(4,4,4,4)"/>
			<v:textRect cx="33.75" cy="353.042" width="67.51" height="29.5697"/>
			<rect x="0" y="338.257" width="67.5" height="29.5697" class="st1"/>
			<text x="6.24" y="356.04" class="st2" v:langID="1033"><v:paragraph v:horizAlign="1"/><v:tabList/>Instrumental</text>		</g>
		<g id="shape1207-78" v:mID="1207" v:groupContext="shape" v:layerMember="0" transform="translate(38,-152.392)">
			<title>Dynamic connector.1207</title>
			<desc>.35</desc>
			<v:textBlock v:margins="rect(4,4,4,4)"/>
			<v:textRect cx="0" cy="376.781" width="40" height="17.6036"/>
			<path d="M0 376.75 L21.28 376.87" class="st3"/>
			<rect v:rectContext="textBkgnd" x="-5.56039" y="371.982" width="11.1209" height="9.59985" class="st5"/>
			<text x="-5.56" y="379.18" class="st6" v:langID="1033"><v:paragraph v:horizAlign="1"/><v:tabList/>.35</text>		</g>
		<g id="shape1208-85" v:mID="1208" v:groupContext="shape" transform="translate(65,-92.5271)">
			<title>Rectangle.1208</title>
			<desc>Number</desc>
			<v:userDefs>
				<v:ud v:nameU="visVersion" v:val="VT0(15):26"/>
			</v:userDefs>
			<v:textBlock v:margins="rect(4,4,4,4)"/>
			<v:textRect cx="33.75" cy="353.042" width="67.51" height="29.5697"/>
			<rect x="0" y="338.257" width="67.5" height="29.5697" class="st1"/>
			<text x="15.97" y="356.04" class="st2" v:langID="1033"><v:paragraph v:horizAlign="1"/><v:tabList/>Number</text>		</g>
		<g id="shape1209-88" v:mID="1209" v:groupContext="shape" v:layerMember="0" transform="translate(38,-116.392)">
			<title>Dynamic connector.1209</title>
			<desc>.77</desc>
			<v:textBlock v:margins="rect(4,4,4,4)"/>
			<v:textRect cx="0" cy="376.781" width="40" height="17.6036"/>
			<path d="M0 376.75 L21.28 376.87" class="st3"/>
			<rect v:rectContext="textBkgnd" x="-5.56039" y="371.982" width="11.1209" height="9.59985" class="st5"/>
			<text x="-5.56" y="379.18" class="st6" v:langID="1033"><v:paragraph v:horizAlign="1"/><v:tabList/>.77</text>		</g>
		<g id="shape1210-95" v:mID="1210" v:groupContext="shape" transform="translate(65,-56.5271)">
			<title>Rectangle.1210</title>
			<desc>Satisfaction</desc>
			<v:userDefs>
				<v:ud v:nameU="visVersion" v:val="VT0(15):26"/>
			</v:userDefs>
			<v:textBlock v:margins="rect(4,4,4,4)"/>
			<v:textRect cx="33.75" cy="353.042" width="67.51" height="29.5697"/>
			<rect x="0" y="338.257" width="67.5" height="29.5697" class="st1"/>
			<text x="7.9" y="356.04" class="st2" v:langID="1033"><v:paragraph v:horizAlign="1"/><v:tabList/>Satisfaction</text>		</g>
		<g id="shape1211-98" v:mID="1211" v:groupContext="shape" v:layerMember="0" transform="translate(38,-80.3919)">
			<title>Dynamic connector.1211</title>
			<desc>.94</desc>
			<v:textBlock v:margins="rect(4,4,4,4)"/>
			<v:textRect cx="0" cy="376.781" width="40" height="17.6036"/>
			<path d="M0 376.75 L21.28 376.87" class="st3"/>
			<rect v:rectContext="textBkgnd" x="-5.56039" y="371.982" width="11.1209" height="9.59985" class="st9"/>
			<text x="-5.56" y="379.18" class="st6" v:langID="1033"><v:paragraph v:horizAlign="1"/><v:tabList/>.94</text>		</g>
		<g id="shape1212-105" v:mID="1212" v:groupContext="shape" transform="translate(180.344,-108.599)">
			<title>Ellipse.1212</title>
			<desc>Social Resources</desc>
			<v:userDefs>
				<v:ud v:nameU="visVersion" v:val="VT0(15):26"/>
			</v:userDefs>
			<v:textBlock v:margins="rect(4,4,4,4)"/>
			<v:textRect cx="49.5" cy="334.076" width="86.63" height="59.0625"/>
			<path d="M0 334.08 A49.5 33.75 0 1 1 99 334.08 A49.5 33.75 0 1 1 0 334.08 Z" class="st1"/>
			<text x="33.16" y="330.48" class="st8" v:langID="1033"><v:paragraph v:horizAlign="1"/><v:tabList/>Social <tspan
						x="20.82" dy="1.2em" class="st7">Resources</tspan></text>		</g>
		<g id="shape1213-109" v:mID="1213" v:groupContext="shape" v:layerMember="0" transform="translate(180.344,-142.349)">
			<title>Dynamic connector.1213</title>
			<desc>.41*</desc>
			<v:textBlock v:margins="rect(4,4,4,4)"/>
			<v:textRect cx="-23.9219" cy="349.345" width="50" height="20.0036"/>
			<path d="M0 367.83 L-43.32 334.36" class="st3"/>
			<rect v:rectContext="textBkgnd" x="-32.8184" y="343.345" width="17.7932" height="12.0001" class="st5"/>
			<text x="-32.82" y="352.35" class="st2" v:langID="1033"><v:paragraph v:horizAlign="1"/><v:tabList/>.41*</text>		</g>
		<g id="shape1214-116" v:mID="1214" v:groupContext="shape" v:layerMember="0" transform="translate(180.344,-133.831)">
			<title>Dynamic connector.1214</title>
			<desc>.81*</desc>
			<v:textBlock v:margins="rect(4,4,4,4)"/>
			<v:textRect cx="-23.9219" cy="358.826" width="50" height="20.0036"/>
			<path d="M0 359.31 L-42.12 358.46" class="st3"/>
			<rect v:rectContext="textBkgnd" x="-32.8184" y="352.827" width="17.7932" height="12.0001" class="st5"/>
			<text x="-32.82" y="361.83" class="st2" v:langID="1033"><v:paragraph v:horizAlign="1"/><v:tabList/>.81*</text>		</g>
		<g id="shape1215-123" v:mID="1215" v:groupContext="shape" v:layerMember="0" transform="translate(180.344,-142.349)">
			<title>Dynamic connector.1215</title>
			<desc>.48*</desc>
			<v:textBlock v:margins="rect(4,4,4,4)"/>
			<v:textRect cx="-23.9219" cy="385.345" width="50" height="20.0036"/>
			<path d="M0 367.83 L-43.23 399.48" class="st3"/>
			<rect v:rectContext="textBkgnd" x="-32.8184" y="379.345" width="17.7932" height="12.0001" class="st5"/>
			<text x="-32.82" y="388.35" class="st2" v:langID="1033"><v:paragraph v:horizAlign="1"/><v:tabList/>.48*</text>		</g>
		<g id="shape1216-130" v:mID="1216" v:groupContext="shape" v:layerMember="0" transform="translate(180.344,-142.349)">
			<title>Dynamic connector.1216</title>
			<desc>.26*</desc>
			<v:textBlock v:margins="rect(4,4,4,4)"/>
			<v:textRect cx="-23.9219" cy="403.345" width="50" height="20.0036"/>
			<path d="M0 367.83 L-44.65 434.12" class="st3"/>
			<rect v:rectContext="textBkgnd" x="-32.8184" y="397.345" width="17.7932" height="12.0001" class="st5"/>
			<text x="-32.82" y="406.35" class="st2" v:langID="1033"><v:paragraph v:horizAlign="1"/><v:tabList/>.26*</text>		</g>
		<g id="shape1217-137" v:mID="1217" v:groupContext="shape" v:layerMember="0" transform="translate(220.844,-87.1689)">
			<title>Dynamic connector.1217</title>
			<desc>.37</desc>
			<v:textBlock v:margins="rect(4,4,4,4)"/>
			<v:textRect cx="9" cy="366.701" width="40" height="17.6036"/>
			<path d="M9 367.83 L9 352.12" class="st3"/>
			<rect v:rectContext="textBkgnd" x="3.43961" y="361.902" width="11.1209" height="9.59985" class="st5"/>
			<text x="3.44" y="369.1" class="st6" v:langID="1033"><v:paragraph v:horizAlign="1"/><v:tabList/>.37</text>		</g>
		<g id="shape1218-144" v:mID="1218" v:groupContext="shape" transform="translate(423.766,-266.634)">
			<title>Rectangle.1218</title>
			<desc>Depressive Symptoms (baseline)</desc>
			<v:userDefs>
				<v:ud v:nameU="visVersion" v:val="VT0(15):26"/>
			</v:userDefs>
			<v:textBlock v:margins="rect(4,4,4,4)"/>
			<v:textRect cx="41.9783" cy="342.854" width="83.96" height="49.9441"/>
			<rect x="0" y="317.882" width="83.9566" height="49.9441" class="st1"/>
			<text x="11.97" y="332.05" class="st8" v:langID="1033"><v:paragraph v:horizAlign="1"/><v:tabList/>Depressive <tspan
						x="13.64" dy="1.2em" class="st7">Symptoms<v:lf/></tspan><tspan x="15.63" dy="1.2em" class="st7">(</tspan>baseline)</text>		</g>
		<g id="shape1219-149" v:mID="1219" v:groupContext="shape" v:layerMember="0" transform="translate(474.763,-340.322)">
			<title>Dynamic connector.1219</title>
			<desc>.63</desc>
			<v:textBlock v:margins="rect(4,4,4,4)"/>
			<v:textRect cx="-8.98212" cy="367.264" width="40" height="17.6036"/>
			<path d="M-8.98 367.83 L-9.01 385.85" class="st3"/>
			<rect v:rectContext="textBkgnd" x="-14.5425" y="362.464" width="11.1209" height="9.59985" class="st9"/>
			<text x="-14.54" y="369.66" class="st6" v:langID="1033"><v:paragraph v:horizAlign="1"/><v:tabList/>.63</text>		</g>
		<g id="shape1224-156" v:mID="1224" v:groupContext="shape" transform="translate(423.766,-104.634)">
			<title>Rectangle.1224</title>
			<desc>Life Satisfaction (baseline)</desc>
			<v:userDefs>
				<v:ud v:nameU="visVersion" v:val="VT0(15):26"/>
			</v:userDefs>
			<v:textBlock v:margins="rect(4,4,4,4)"/>
			<v:textRect cx="41.9783" cy="342.854" width="83.96" height="49.9441"/>
			<rect x="0" y="317.882" width="83.9566" height="49.9441" class="st1"/>
			<text x="32.3" y="332.05" class="st8" v:langID="1033"><v:paragraph v:horizAlign="1"/><v:tabList/>Life<v:lf/><tspan
						x="10.96" dy="1.2em" class="st7">Satisfaction<v:lf/></tspan><tspan x="15.63" dy="1.2em" class="st7">(</tspan>baseline)</text>		</g>
		<g id="shape1225-161" v:mID="1225" v:groupContext="shape" v:layerMember="0" transform="translate(456.622,-82.6965)">
			<title>Dynamic connector.1225</title>
			<desc>.26</desc>
			<v:textBlock v:margins="rect(4,4,4,4)"/>
			<v:textRect cx="8.93672" cy="367.579" width="40" height="17.6036"/>
			<path d="M8.88 367.83 L9.06 351.61" class="st3"/>
			<rect v:rectContext="textBkgnd" x="3.37633" y="362.779" width="11.1209" height="9.59985" class="st5"/>
			<text x="3.38" y="369.98" class="st6" v:langID="1033"><v:paragraph v:horizAlign="1"/><v:tabList/>.26</text>		</g>
		<g id="shape1226-168" v:mID="1226" v:groupContext="shape" transform="translate(322.969,-172.777)">
			<title>Ellipse.1226</title>
			<desc>Resources &#38; Health</desc>
			<v:userDefs>
				<v:ud v:nameU="visVersion" v:val="VT0(15):26"/>
			</v:userDefs>
			<v:textBlock v:margins="rect(4,4,4,4)"/>
			<v:textRect cx="49.5" cy="334.076" width="86.63" height="59.0625"/>
			<path d="M0 334.08 A49.5 33.75 0 1 1 99 334.08 A49.5 33.75 0 1 1 0 334.08 Z" class="st1"/>
			<text x="15.15" y="330.48" class="st8" v:langID="1033"><v:paragraph v:horizAlign="1"/><v:tabList/>Resources &#38; <tspan
						x="32.16" dy="1.2em" class="st7">Health</tspan></text>		</g>
		<g id="shape1227-172" v:mID="1227" v:groupContext="shape" v:layerMember="0" transform="translate(421.969,-206.527)">
			<title>Dynamic connector.1227</title>
			<desc>-.61*</desc>
			<v:textBlock v:margins="rect(4,4,4,4)"/>
			<v:textRect cx="21.8876" cy="337.773" width="60" height="22.4037"/>
			<path d="M0 367.83 L40.41 312.35" class="st3"/>
			<rect v:rectContext="textBkgnd" x="9.21358" y="330.573" width="25.3479" height="14.4001" class="st5"/>
			<text x="9.21" y="341.37" class="st10" v:langID="1033"><v:paragraph v:horizAlign="1"/><v:tabList/>-.61*</text>		</g>
		<g id="shape1230-179" v:mID="1230" v:groupContext="shape" v:layerMember="0" transform="translate(421.969,-206.527)">
			<title>Dynamic connector.1230</title>
			<desc>.86*</desc>
			<v:textBlock v:margins="rect(4,4,4,4)"/>
			<v:textRect cx="21.8876" cy="393.801" width="60" height="22.4037"/>
			<path d="M0 367.83 L40.09 415.4" class="st3"/>
			<rect v:rectContext="textBkgnd" x="11.2117" y="386.601" width="21.3519" height="14.4001" class="st5"/>
			<text x="11.21" y="397.4" class="st10" v:langID="1033"><v:paragraph v:horizAlign="1"/><v:tabList/>.86*</text>		</g>
		<g id="shape1231-186" v:mID="1231" v:groupContext="shape" v:layerMember="0" transform="translate(381.574,-151.347)">
			<title>Dynamic connector.1231</title>
			<desc>1</desc>
			<v:textBlock v:margins="rect(4,4,4,4)"/>
			<v:textRect cx="-9.10547" cy="367.826" width="40" height="17.6036"/>
			<path d="M-8.89 367.83 L-9.05 352.12" class="st3"/>
			<rect v:rectContext="textBkgnd" x="-11.3301" y="363.027" width="4.44919" height="9.59985" class="st5"/>
			<text x="-11.33" y="370.23" class="st6" v:langID="1033"><v:paragraph v:horizAlign="1"/><v:tabList/>1</text>		</g>
		<g id="shape1232-193" v:mID="1232" v:groupContext="shape" v:layerMember="0" transform="translate(322.969,-206.527)">
			<title>Dynamic connector.1232</title>
			<desc>.62*</desc>
			<v:textBlock v:margins="rect(4,4,4,4)"/>
			<v:textRect cx="-21.8125" cy="333.273" width="60" height="22.4037"/>
			<path d="M0 367.83 L-40.57 303.56" class="st3"/>
			<rect v:rectContext="textBkgnd" x="-32.4884" y="326.073" width="21.3519" height="14.4001" class="st5"/>
			<text x="-32.49" y="336.87" class="st10" v:langID="1033"><v:paragraph v:horizAlign="1"/><v:tabList/>.62*</text>		</g>
		<g id="shape1233-200" v:mID="1233" v:groupContext="shape" v:layerMember="0" transform="translate(322.969,-206.527)">
			<title>Dynamic connector.1233</title>
			<desc>.79*</desc>
			<v:textBlock v:margins="rect(4,4,4,4)"/>
			<v:textRect cx="-21.8125" cy="399.915" width="60" height="22.4037"/>
			<path d="M0 367.83 L-40.41 427.27" class="st3"/>
			<rect v:rectContext="textBkgnd" x="-32.4884" y="392.716" width="21.3519" height="14.4001" class="st9"/>
			<text x="-32.49" y="403.52" class="st10" v:langID="1033"><v:paragraph v:horizAlign="1"/><v:tabList/>.79*</text>		</g>
		<g id="shape1234-207" v:mID="1234" v:groupContext="shape" transform="translate(361.75,-18.375)">
			<title>Sheet.1234</title>
			<desc>χ2(39) = 50.23, p = .11 CFI = .97, RMSEA = .06, SRMR = .07</desc>
			<v:textBlock v:margins="rect(4,4,4,4)"/>
			<v:textRect cx="105.4" cy="346.817" width="210.81" height="42.0181"/>
			<rect x="0" y="325.808" width="210.8" height="42.0181" class="st11"/>
			<text x="49.45" y="343.23" class="st8" v:langID="1033"><v:paragraph v:horizAlign="1"/><v:tabList/>χ<tspan dy="-0.235em"
						class="st12" v:baseFontSize="12">2</tspan><tspan dy="-0.052em" class="st13" v:baseFontSize="12">(</tspan><tspan
						class="st13" v:baseFontSize="12">39</tspan><tspan class="st13" v:baseFontSize="12">)</tspan><tspan
						dy="0.186em" class="st7"> </tspan>= 50.23, <tspan class="st14">p</tspan> = .11<v:lf/><tspan x="4.53"
						dy="1.201em" class="st7">CFI </tspan>= .97, RMSEA = .06, SRMR = .07</text>		</g>
		<g id="shape1235-217" v:mID="1235" v:groupContext="shape" transform="translate(261.25,-320.432)">
			<title>Sheet.1235</title>
			<desc>Standardized Estimates</desc>
			<v:textBlock v:margins="rect(4,4,4,4)"/>
			<v:textRect cx="76" cy="357.826" width="152" height="20"/>
			<rect x="0" y="347.826" width="152" height="20" class="st11"/>
			<text x="12.63" y="361.43" class="st8" v:langID="1033"><v:paragraph v:horizAlign="1"/><v:tabList/>Standardized Estimates</text>		</g>
		<g id="shape1236-220" v:mID="1236" v:groupContext="shape" transform="translate(556.344,-266.634)">
			<title>Rectangle.1236</title>
			<desc>Depressive Symptoms (6 months)</desc>
			<v:userDefs>
				<v:ud v:nameU="visVersion" v:val="VT0(15):26"/>
			</v:userDefs>
			<v:textBlock v:margins="rect(4,4,4,4)"/>
			<v:textRect cx="41.9783" cy="342.854" width="83.96" height="49.9441"/>
			<rect x="0" y="317.882" width="83.9566" height="49.9441" class="st1"/>
			<text x="11.97" y="332.05" class="st8" v:langID="1033"><v:paragraph v:horizAlign="1"/><v:tabList/>Depressive <tspan
						x="13.64" dy="1.2em" class="st7">Symptoms<v:lf/></tspan><tspan x="13.3" dy="1.2em" class="st7">(</tspan>6 months)</text>		</g>
		<g id="shape1237-225" v:mID="1237" v:groupContext="shape" v:layerMember="0" transform="translate(589.286,-340.462)">
			<title>Dynamic connector.1237</title>
			<desc>.85</desc>
			<v:textBlock v:margins="rect(4,4,4,4)"/>
			<v:textRect cx="8.96061" cy="367.264" width="40" height="17.6036"/>
			<path d="M8.96 367.83 L9.02 385.99" class="st3"/>
			<rect v:rectContext="textBkgnd" x="3.40022" y="362.464" width="11.1209" height="9.59985" class="st5"/>
			<text x="3.4" y="369.66" class="st6" v:langID="1033"><v:paragraph v:horizAlign="1"/><v:tabList/>.85</text>		</g>
		<g id="shape1238-232" v:mID="1238" v:groupContext="shape" transform="translate(556.344,-104.634)">
			<title>Rectangle.1238</title>
			<desc>Life Satisfaction (6 months)</desc>
			<v:userDefs>
				<v:ud v:nameU="visVersion" v:val="VT0(15):26"/>
			</v:userDefs>
			<v:textBlock v:margins="rect(4,4,4,4)"/>
			<v:textRect cx="41.9783" cy="342.854" width="83.96" height="49.9441"/>
			<rect x="0" y="317.882" width="83.9566" height="49.9441" class="st1"/>
			<text x="32.3" y="332.05" class="st8" v:langID="1033"><v:paragraph v:horizAlign="1"/><v:tabList/>Life<v:lf/><tspan
						x="10.96" dy="1.2em" class="st7">Satisfaction<v:lf/></tspan><tspan x="13.3" dy="1.2em" class="st7">(</tspan>6 months)</text>		</g>
		<g id="shape1239-237" v:mID="1239" v:groupContext="shape" v:layerMember="0" transform="translate(589.286,-81.009)">
			<title>Dynamic connector.1239</title>
			<desc>.26</desc>
			<v:textBlock v:margins="rect(4,4,4,4)"/>
			<v:textRect cx="8.92322" cy="364.404" width="40" height="17.6036"/>
			<path d="M8.96 367.83 L9.02 349.92" class="st3"/>
			<rect v:rectContext="textBkgnd" x="3.36282" y="359.604" width="11.1209" height="9.59985" class="st5"/>
			<text x="3.36" y="366.8" class="st6" v:langID="1033"><v:paragraph v:horizAlign="1"/><v:tabList/>.26</text>		</g>
		<g id="shape1240-244" v:mID="1240" v:groupContext="shape" v:layerMember="0" transform="translate(421.969,-206.527)">
			<title>Dynamic connector.1240</title>
			<desc>-.21</desc>
			<v:textBlock v:margins="rect(4,4,4,4)"/>
			<v:textRect cx="88.1767" cy="337.773" width="60" height="22.4037"/>
			<path d="M0 367.83 L170.94 309.57" class="st3"/>
			<rect v:rectContext="textBkgnd" x="77.8378" y="330.573" width="20.6779" height="14.4001" class="st5"/>
			<text x="77.84" y="341.37" class="st8" v:langID="1033"><v:paragraph v:horizAlign="1"/><v:tabList/>-.21</text>		</g>
		<g id="shape1241-251" v:mID="1241" v:groupContext="shape" v:layerMember="0" transform="translate(421.969,-206.527)">
			<title>Dynamic connector.1241</title>
			<desc>.78*</desc>
			<v:textBlock v:margins="rect(4,4,4,4)"/>
			<v:textRect cx="88.1767" cy="393.801" width="60" height="22.4037"/>
			<path d="M0 367.83 L170.86 418.16" class="st3"/>
			<rect v:rectContext="textBkgnd" x="77.5008" y="386.601" width="21.3519" height="14.4001" class="st5"/>
			<text x="77.5" y="397.4" class="st10" v:langID="1033"><v:paragraph v:horizAlign="1"/><v:tabList/>.78*</text>		</g>
		<g id="shape1242-258" v:mID="1242" v:groupContext="shape" v:layerMember="0" transform="translate(507.722,-282.606)">
			<title>Dynamic connector.1242</title>
			<desc>.22</desc>
			<v:textBlock v:margins="rect(4,4,4,4)"/>
			<v:textRect cx="24.3108" cy="358.826" width="60" height="22.4037"/>
			<path d="M0 358.83 L42.9 358.83" class="st3"/>
			<rect v:rectContext="textBkgnd" x="15.9698" y="351.627" width="16.6819" height="14.4001" class="st5"/>
			<text x="15.97" y="362.43" class="st8" v:langID="1033"><v:paragraph v:horizAlign="1"/><v:tabList/>.22</text>		</g>
		<g id="shape1243-265" v:mID="1243" v:groupContext="shape" v:layerMember="0" transform="translate(507.722,-120.606)">
			<title>Dynamic connector.1243</title>
			<desc>.09</desc>
			<v:textBlock v:margins="rect(4,4,4,4)"/>
			<v:textRect cx="24.3108" cy="358.826" width="60" height="22.4037"/>
			<path d="M0 358.83 L42.9 358.83" class="st3"/>
			<rect v:rectContext="textBkgnd" x="15.9698" y="351.627" width="16.6819" height="14.4001" class="st5"/>
			<text x="15.97" y="362.43" class="st8" v:langID="1033"><v:paragraph v:horizAlign="1"/><v:tabList/>.09</text>		</g>
		<g id="shape1245-272" v:mID="1245" v:groupContext="shape" v:layerMember="0" transform="translate(598.25,-338.634)">
			<title>Dynamic connector</title>
			<desc>-.40*</desc>
			<v:textBlock v:margins="rect(4,4,4,4)"/>
			<v:textRect cx="71.9038" cy="495.734" width="50" height="20.0036"/>
			<path d="M14.24 368.96 L14.59 369.04 C85.07 387.35 76.63 503.74 62.74 562.42 C50.08 615.95 32.88 621.45 14.7 620.34 L14.34
						 620.31" class="st15"/>
			<rect v:rectContext="textBkgnd" x="61.3423" y="489.734" width="21.1231" height="12.0001" class="st5"/>
			<text x="61.34" y="498.73" class="st16" v:langID="1033"><v:paragraph v:horizAlign="1"/><v:tabList/>-.40*</text>		</g>
		<g id="shape1246-283" v:mID="1246" v:groupContext="shape" v:layerMember="0" transform="translate(463.25,-338.634)">
			<title>Dynamic connector.1246</title>
			<desc>.20</desc>
			<v:textBlock v:margins="rect(4,4,4,4)"/>
			<v:textRect cx="71.7894" cy="494.596" width="50" height="20.0036"/>
			<path d="M14.24 368.96 L14.59 369.03 C85.07 387.12 76.63 499.2 62.74 557.92 C50.08 611.48 32.88 620.65 14.71 620.23 L14.35
						 620.2" class="st15"/>
			<rect v:rectContext="textBkgnd" x="64.8385" y="488.596" width="13.9016" height="12.0001" class="st5"/>
			<text x="64.84" y="497.6" class="st2" v:langID="1033"><v:paragraph v:horizAlign="1"/><v:tabList/>.20</text>		</g>
	</g>
</svg>
